<svg width="192" height="85" viewBox="0 0 192 85" fill="none" xmlns="http://www.w3.org/2000/svg">
<g filter="url(#filter0_d_5_24)">
<path d="M64.15 71.525C65.025 71.725 65.45 72.025 65.425 72.625C65.425 73.3 64.775 73.775 63.9 73.8C62.775 73.875 61.825 73.15 61.75 72.325H58.9C58.975 74.825 61.3 76.25 63.6 76.25C66.025 76.25 68.375 75.05 68.375 72.65C68.375 71.7 68.025 69.9 65.325 69.15L63.375 68.675C62.7 68.5 62.15 68.175 62.15 67.7C62.15 66.825 62.85 66.55 63.625 66.55C64.325 66.55 65.125 66.875 65.2 67.75H68.1C67.975 65.075 65.775 64.075 63.55 64.075C61.25 64.075 59.25 65.65 59.25 67.55C59.25 68.9 59.525 70.325 62.55 71.125L64.15 71.525ZM78.7525 70.55C78.7525 72.575 77.5025 73.275 76.2275 73.275C75.1525 73.275 74.0025 72.575 74.0025 70.675V64.325H70.9275V71.225C70.9275 74.525 72.7525 76.25 75.5275 76.25C76.7025 76.25 78.1025 75.6 78.7525 74.35V76H81.8025V64.325H78.7525V70.55ZM89.6871 71.525C90.5621 71.725 90.9871 72.025 90.9621 72.625C90.9621 73.3 90.3121 73.775 89.4371 73.8C88.3121 73.875 87.3621 73.15 87.2871 72.325H84.4371C84.5121 74.825 86.8371 76.25 89.1371 76.25C91.5621 76.25 93.9121 75.05 93.9121 72.65C93.9121 71.7 93.5621 69.9 90.8621 69.15L88.9121 68.675C88.2371 68.5 87.6871 68.175 87.6871 67.7C87.6871 66.825 88.3871 66.55 89.1621 66.55C89.8621 66.55 90.6621 66.875 90.7371 67.75H93.6371C93.5121 65.075 91.3121 64.075 89.0871 64.075C86.7871 64.075 84.7871 65.65 84.7871 67.55C84.7871 68.9 85.0621 70.325 88.0871 71.125L89.6871 71.525ZM99.6646 69.775C99.6646 67.75 101.19 67.05 102.465 67.05C103.715 67.05 104.94 67.975 104.94 69.65V76H107.99V69.5C107.99 66.075 106.315 64.075 103.29 64.075C102.14 64.075 100.19 64.725 99.6646 66.125V57.975H96.6146V76H99.6646V69.775ZM114.313 64.325H111.288V76H114.313V64.325ZM110.838 59.8C110.838 60.875 111.738 61.65 112.813 61.65C113.888 61.65 114.738 60.875 114.738 59.8C114.738 58.775 113.888 57.975 112.813 57.975C111.738 57.975 110.838 58.775 110.838 59.8Z" fill="#F1A0B5"/>
<path d="M12.292 54.9399C10.7344 54.9399 9.47217 54.9489 8.50537 54.9668C7.55648 55.0026 6.80452 55.0384 6.24951 55.0742C5.60498 55.1279 5.13053 55.1727 4.82617 55.2085C4.9694 54.2059 5.09473 53.1406 5.20215 52.0127C5.30957 50.8669 5.40804 49.7031 5.49756 48.5215C5.58708 47.3398 5.65869 46.1672 5.7124 45.0034C5.76611 43.8397 5.81087 42.7297 5.84668 41.6733C5.91829 39.1847 5.96305 36.6961 5.98096 34.2075C5.96305 31.7189 5.91829 29.3109 5.84668 26.9834C5.81087 25.9987 5.76611 24.9782 5.7124 23.9219C5.65869 22.8477 5.59603 21.8003 5.52441 20.7798C5.4528 19.7593 5.36328 18.7835 5.25586 17.8525C5.16634 16.9215 5.05892 16.0801 4.93359 15.3281H6.6792C7.646 15.3281 8.47852 15.3192 9.17676 15.3013C9.875 15.2655 10.4569 15.2297 10.9224 15.1938C11.4595 15.158 11.916 15.1133 12.292 15.0596C12.2025 16.8499 12.1219 18.6493 12.0503 20.4575C11.9966 22.2658 11.9518 23.9935 11.916 25.6406C11.8802 27.2699 11.8534 28.7648 11.8354 30.1255C11.8175 31.4862 11.8086 32.623 11.8086 33.5361C12.3815 33.5719 12.9365 33.5898 13.4736 33.5898C14.0107 33.5898 14.5389 33.5898 15.0581 33.5898C16.186 33.5898 17.1797 33.5719 18.0391 33.5361C18.9163 33.4824 19.6414 33.4287 20.2144 33.375C20.2144 33.2676 20.2054 32.8826 20.1875 32.2202C20.1875 31.5399 20.1785 30.6895 20.1606 29.6689C20.1427 28.6484 20.1069 27.5026 20.0532 26.2314C20.0174 24.9603 19.9637 23.6712 19.8921 22.3643C19.8205 21.0573 19.731 19.7951 19.6235 18.5776C19.5161 17.3423 19.3818 16.2591 19.2207 15.3281H20.9395C21.8525 15.3281 22.6403 15.3192 23.3027 15.3013C23.9831 15.2655 24.547 15.2297 24.9946 15.1938C25.5138 15.158 25.9525 15.1133 26.3105 15.0596C26.2568 16.2233 26.2031 17.4049 26.1494 18.6045C26.1136 19.7861 26.0778 20.9588 26.042 22.1226C26.0241 23.2684 26.0062 24.3874 25.9883 25.4795C25.9704 26.5537 25.9525 27.5742 25.9346 28.541C25.8988 30.7969 25.8809 32.9722 25.8809 35.0669C25.8809 37.1437 25.8988 39.2563 25.9346 41.4048C25.9525 42.3179 25.9704 43.2847 25.9883 44.3052C26.0062 45.3078 26.0241 46.3372 26.042 47.3936C26.0778 48.432 26.1136 49.4704 26.1494 50.5088C26.2031 51.5472 26.2568 52.5498 26.3105 53.5166C24.8066 53.5166 23.5892 53.5345 22.6582 53.5703C21.7272 53.5882 21.0021 53.6151 20.4829 53.6509C19.8742 53.7046 19.4176 53.7493 19.1133 53.7852C19.2744 52.693 19.4087 51.5293 19.5161 50.2939C19.6235 49.0586 19.7131 47.8053 19.7847 46.5342C19.8742 45.263 19.9368 44.0098 19.9727 42.7744C20.0264 41.5391 20.0711 40.3843 20.1069 39.3101C19.2476 39.2205 18.424 39.1668 17.6362 39.1489C16.8485 39.1131 16.0965 39.0952 15.3804 39.0952C14.6284 39.0952 13.9481 39.1042 13.3394 39.1221C12.7485 39.14 12.2383 39.1668 11.8086 39.2026C11.8086 40.1694 11.8175 41.2884 11.8354 42.5596C11.8534 43.8307 11.8802 45.1646 11.916 46.561C11.9697 47.9396 12.0234 49.354 12.0771 50.8042C12.1309 52.2365 12.2025 53.6151 12.292 54.9399ZM31.0371 50.8042C31.0371 49.4256 31.0013 48.047 30.9297 46.6685C30.876 45.2899 30.8133 43.9113 30.7417 42.5327C30.6701 41.1362 30.5985 39.7397 30.5269 38.3433C30.4731 36.9289 30.4463 35.4966 30.4463 34.0464C30.4463 32.5246 30.491 30.9849 30.5806 29.4272C30.688 27.8517 30.8849 26.3389 31.1714 24.8887C31.4578 23.4206 31.8517 22.0509 32.353 20.7798C32.8543 19.4907 33.5078 18.3717 34.3135 17.4229C35.1191 16.474 36.1038 15.722 37.2676 15.167C38.4313 14.612 39.8009 14.3345 41.3765 14.3345C42.8804 14.3345 44.1873 14.5762 45.2974 15.0596C46.4074 15.5251 47.3473 16.1696 48.1172 16.9932C48.9049 17.8167 49.5405 18.7835 50.0239 19.8936C50.5252 21.0036 50.9102 22.2031 51.1787 23.4922C51.4652 24.7812 51.6621 26.124 51.7695 27.5205C51.877 28.917 51.9307 30.3045 51.9307 31.6831C51.9307 32.0412 51.9217 32.3545 51.9038 32.623C51.9038 32.8916 51.8949 33.187 51.877 33.5093C51.877 33.8136 51.859 34.1807 51.8232 34.6104C51.8053 35.04 51.7785 35.604 51.7427 36.3022C51.7069 36.9826 51.6621 37.8241 51.6084 38.8267C51.5726 39.8293 51.5278 41.0646 51.4741 42.5327C51.4204 44.0008 51.3577 45.7375 51.2861 47.7427C51.2145 49.73 51.1429 52.0575 51.0713 54.7251L43.0415 54.4297C43.3459 52.3887 43.6144 50.3477 43.8472 48.3066C44.0978 46.2477 44.3037 44.332 44.4648 42.5596C43.0863 42.4521 41.8062 42.3984 40.6245 42.3984C40.0158 42.3984 39.4429 42.4074 38.9058 42.4253C38.3687 42.4432 37.8942 42.4701 37.4824 42.5059C37.5361 43.4368 37.5988 44.4215 37.6704 45.46C37.742 46.4984 37.8226 47.5457 37.9121 48.6021C38.0016 49.6584 38.1001 50.7057 38.2075 51.7441C38.3149 52.7646 38.4403 53.7404 38.5835 54.6714L30.9834 54.8862C31.0192 54.2238 31.0371 53.5524 31.0371 52.8721C31.0371 52.1738 31.0371 51.4845 31.0371 50.8042ZM37.1602 36.8394C37.6973 36.8752 38.2254 36.8931 38.7446 36.8931C39.2638 36.8931 39.7741 36.8931 40.2754 36.8931C42.1911 36.8931 43.7308 36.8394 44.8945 36.7319C45.002 35.4608 45.1094 34.1807 45.2168 32.8916C45.3421 31.6025 45.4048 30.224 45.4048 28.7559C45.4048 25.6585 45.0825 23.3042 44.438 21.6929C43.8114 20.0636 42.8804 19.249 41.645 19.249C40.9647 19.249 40.3381 19.4907 39.7651 19.9741C39.1922 20.4575 38.6909 21.2095 38.2612 22.23C37.8494 23.2326 37.5182 24.5037 37.2676 26.0435C37.0348 27.5832 36.9185 29.4004 36.9185 31.4951C36.9185 32.2292 36.9364 33.0169 36.9722 33.8584C37.0259 34.682 37.0885 35.6756 37.1602 36.8394ZM79.377 14.5762C79.2874 16.0264 79.2069 17.5392 79.1353 19.1147C79.0815 20.6724 79.0278 22.2389 78.9741 23.8145C78.9383 25.39 78.9025 26.9386 78.8667 28.4604C78.8488 29.9823 78.8309 31.4146 78.813 32.7573C78.7951 34.1001 78.7861 35.3265 78.7861 36.4365C78.7861 37.5465 78.7861 38.4865 78.7861 39.2563C78.7861 40.259 78.7861 41.369 78.7861 42.5864C78.7861 43.8039 78.7951 45.0571 78.813 46.3462C78.8309 47.6353 78.8488 48.9333 78.8667 50.2402C78.9025 51.5293 78.9473 52.7467 79.001 53.8926C78.2311 53.8568 77.5239 53.8389 76.8794 53.8389C76.2528 53.8389 75.6799 53.8389 75.1606 53.8389C74.2297 53.8389 73.4598 53.8478 72.8511 53.8657C72.2424 53.8836 71.759 53.9105 71.4009 53.9463C70.9712 53.9821 70.64 54.0179 70.4072 54.0537C70.3535 53.6777 70.2371 53.0959 70.0581 52.3081C69.897 51.5024 69.6821 50.5535 69.4136 49.4614C69.1629 48.3693 68.8675 47.1608 68.5273 45.8359C68.1872 44.5111 67.8201 43.1325 67.4263 41.7002C67.0503 40.2679 66.6564 38.8177 66.2446 37.3496C65.8328 35.8636 65.4211 34.4224 65.0093 33.0259C64.6154 31.6115 64.2215 30.2777 63.8276 29.0244C63.4517 27.7533 63.1025 26.6164 62.7803 25.6138C62.637 27.9054 62.5296 30.027 62.458 31.9785C62.3864 33.9121 62.3327 35.604 62.2969 37.0542C62.2432 38.7371 62.2163 40.2769 62.2163 41.6733C62.2163 42.8729 62.2432 44.144 62.2969 45.4868C62.3327 46.6326 62.3953 47.9396 62.4849 49.4077C62.5923 50.8758 62.7445 52.3708 62.9414 53.8926C61.5628 53.8389 60.4259 53.812 59.5308 53.812C58.6535 53.7941 57.9552 53.7852 57.436 53.7852H56.1201C56.2096 50.5804 56.2812 47.859 56.335 45.6211C56.3887 43.3831 56.4245 41.5122 56.4424 40.0083C56.4782 38.4865 56.4961 37.269 56.4961 36.356C56.514 35.4429 56.5229 34.7088 56.5229 34.1538C56.5229 33.5809 56.514 33.1243 56.4961 32.7842C56.4961 32.444 56.4961 32.0949 56.4961 31.7368C56.4961 30.8416 56.4871 29.7764 56.4692 28.541C56.4692 27.3057 56.4513 25.9808 56.4155 24.5664C56.3797 23.1341 56.326 21.6481 56.2544 20.1084C56.1828 18.5687 56.0843 17.0469 55.959 15.543C57.7852 15.543 59.2891 15.5251 60.4707 15.4893C61.6523 15.4535 62.5923 15.4176 63.2905 15.3818C64.1141 15.3281 64.7497 15.2744 65.1973 15.2207C65.2868 15.7936 65.4658 16.6888 65.7344 17.9062C66.0208 19.1237 66.3521 20.5381 66.728 22.1494C67.1219 23.7428 67.5605 25.4705 68.0439 27.3325C68.5273 29.1945 69.0197 31.0744 69.521 32.9722C70.0402 34.8521 70.5594 36.6872 71.0786 38.4775C71.5978 40.25 72.0902 41.8524 72.5557 43.2847C72.6452 41.7629 72.7078 40.2142 72.7437 38.6387C72.7974 37.0452 72.8332 35.5592 72.8511 34.1807C72.8869 32.8021 72.9048 31.6025 72.9048 30.582C72.9048 29.5436 72.9048 28.8275 72.9048 28.4336C72.8869 26.8044 72.8511 25.1751 72.7974 23.5459C72.7795 22.8477 72.7526 22.1226 72.7168 21.3706C72.681 20.6187 72.6362 19.8667 72.5825 19.1147C72.5467 18.3449 72.493 17.5929 72.4214 16.8589C72.3677 16.1248 72.305 15.4355 72.2334 14.791L79.377 14.5762ZM91.1934 54.9399C90.7816 54.9399 90.3787 54.931 89.9849 54.9131C89.6089 54.8952 89.224 54.8862 88.8301 54.8862C88.0781 54.8862 87.3709 54.8952 86.7085 54.9131C86.0461 54.931 85.4731 54.9578 84.9897 54.9937C84.3989 55.0295 83.8708 55.0653 83.4053 55.1011C83.6559 52.4155 83.8529 49.8016 83.9961 47.2593C84.1393 44.717 84.2467 42.4432 84.3184 40.438C84.39 38.1105 84.4347 35.8994 84.4526 33.8047C84.4526 31.7637 84.4168 29.6779 84.3452 27.5474C84.3094 26.6343 84.2646 25.6764 84.2109 24.6738C84.1751 23.6533 84.1214 22.6239 84.0498 21.5854C83.9961 20.5291 83.9155 19.4728 83.8081 18.4165C83.7186 17.3602 83.6201 16.3307 83.5127 15.3281C84.2646 15.3818 84.9629 15.4176 85.6074 15.4355C86.252 15.4355 86.8517 15.4355 87.4067 15.4355C87.9797 15.4355 88.4989 15.4355 88.9644 15.4355C89.4299 15.4176 89.8237 15.3997 90.146 15.3818C90.522 15.3639 90.8532 15.346 91.1396 15.3281C90.9785 17.5661 90.8532 19.7593 90.7637 21.9077C90.6742 24.0562 90.6115 25.9897 90.5757 27.7085C90.522 29.7137 90.4951 31.6204 90.4951 33.4287V35.0669C91.6051 33.7062 92.6167 32.2381 93.5298 30.6626C94.4608 29.0871 95.2575 27.4578 95.9199 25.7749C96.5824 24.0741 97.0926 22.3553 97.4507 20.6187C97.8267 18.882 98.0146 17.1722 98.0146 15.4893V14.6299L107.146 15.4355C105.57 18.2106 104.2 20.6634 103.037 22.7939C101.873 24.9066 100.87 26.7327 100.029 28.2725C99.2052 29.8122 98.5339 31.0923 98.0146 32.1128C97.4954 33.1333 97.0926 33.939 96.8062 34.5298C98.0773 34.87 99.0978 35.3444 99.8677 35.9531C100.655 36.5439 101.273 37.2332 101.721 38.021C102.168 38.8088 102.482 39.6771 102.661 40.626C102.858 41.557 103.01 42.5238 103.117 43.5264C103.225 44.529 103.323 45.5405 103.413 46.561C103.52 47.5815 103.708 48.5752 103.977 49.542C104.12 50.097 104.326 50.6699 104.594 51.2607C104.827 51.7799 105.131 52.3618 105.507 53.0063C105.883 53.633 106.358 54.2775 106.931 54.9399L99.3574 55.1011C98.9456 54.6893 98.6055 54.1432 98.3369 53.4629C98.0863 52.7826 97.8893 52.1112 97.7461 51.4487C97.5671 50.6789 97.4417 49.8643 97.3701 49.0049C97.2806 48.0202 97.2179 47.0623 97.1821 46.1313C97.1642 45.1825 97.1105 44.2873 97.021 43.4458C96.9494 42.6043 96.8241 41.8345 96.645 41.1362C96.466 40.4201 96.1795 39.8114 95.7856 39.3101C95.3918 38.7909 94.8636 38.388 94.2012 38.1016C93.5566 37.8151 92.7241 37.6719 91.7036 37.6719C91.5067 37.6719 91.3097 37.6808 91.1128 37.6987C90.9159 37.7166 90.71 37.7435 90.4951 37.7793C90.5488 39.7129 90.6204 42.1567 90.71 45.1108C90.8174 48.047 90.9785 51.3234 91.1934 54.9399ZM132.685 34.7446C132.685 37.6092 132.417 40.2948 131.879 42.8013C131.342 45.3078 130.546 47.501 129.489 49.3809C128.433 51.2428 127.117 52.7199 125.542 53.812C123.984 54.8862 122.185 55.4233 120.144 55.4233C118.067 55.4233 116.241 54.8862 114.665 53.812C113.107 52.7199 111.8 51.2428 110.744 49.3809C109.706 47.501 108.918 45.3078 108.381 42.8013C107.862 40.2948 107.602 37.6092 107.602 34.7446C107.602 31.8979 107.853 29.2214 108.354 26.7148C108.873 24.2083 109.652 22.0241 110.69 20.1621C111.729 18.3001 113.036 16.832 114.611 15.7578C116.187 14.6657 118.031 14.1196 120.144 14.1196C122.328 14.1196 124.208 14.6657 125.783 15.7578C127.377 16.832 128.684 18.3001 129.704 20.1621C130.725 22.0241 131.477 24.2083 131.96 26.7148C132.443 29.2214 132.685 31.8979 132.685 34.7446ZM125.649 34.7446C125.649 32.5246 125.559 30.4388 125.38 28.4873C125.201 26.5179 124.897 24.8081 124.467 23.3579C124.056 21.8898 123.492 20.735 122.775 19.8936C122.077 19.0521 121.2 18.6313 120.144 18.6313C119.123 18.6313 118.264 19.0521 117.565 19.8936C116.867 20.735 116.303 21.8898 115.874 23.3579C115.444 24.8081 115.131 26.5179 114.934 28.4873C114.737 30.4388 114.638 32.5246 114.638 34.7446C114.638 36.9826 114.737 39.0863 114.934 41.0557C115.131 43.0072 115.444 44.717 115.874 46.1851C116.321 47.6353 116.894 48.79 117.592 49.6494C118.291 50.4909 119.141 50.9116 120.144 50.9116C121.128 50.9116 121.97 50.4909 122.668 49.6494C123.366 48.79 123.939 47.6353 124.387 46.1851C124.834 44.717 125.157 43.0072 125.354 41.0557C125.55 39.0863 125.649 36.9826 125.649 34.7446ZM160.4 34.7446C160.4 37.6092 160.131 40.2948 159.594 42.8013C159.057 45.3078 158.26 47.501 157.204 49.3809C156.148 51.2428 154.832 52.7199 153.256 53.812C151.699 54.8862 149.899 55.4233 147.858 55.4233C145.782 55.4233 143.955 54.8862 142.38 53.812C140.822 52.7199 139.515 51.2428 138.459 49.3809C137.421 47.501 136.633 45.3078 136.096 42.8013C135.576 40.2948 135.317 37.6092 135.317 34.7446C135.317 31.8979 135.568 29.2214 136.069 26.7148C136.588 24.2083 137.367 22.0241 138.405 20.1621C139.444 18.3001 140.751 16.832 142.326 15.7578C143.902 14.6657 145.746 14.1196 147.858 14.1196C150.043 14.1196 151.923 14.6657 153.498 15.7578C155.091 16.832 156.398 18.3001 157.419 20.1621C158.439 22.0241 159.191 24.2083 159.675 26.7148C160.158 29.2214 160.4 31.8979 160.4 34.7446ZM153.364 34.7446C153.364 32.5246 153.274 30.4388 153.095 28.4873C152.916 26.5179 152.612 24.8081 152.182 23.3579C151.77 21.8898 151.206 20.735 150.49 19.8936C149.792 19.0521 148.915 18.6313 147.858 18.6313C146.838 18.6313 145.979 19.0521 145.28 19.8936C144.582 20.735 144.018 21.8898 143.588 23.3579C143.159 24.8081 142.845 26.5179 142.648 28.4873C142.451 30.4388 142.353 32.5246 142.353 34.7446C142.353 36.9826 142.451 39.0863 142.648 41.0557C142.845 43.0072 143.159 44.717 143.588 46.1851C144.036 47.6353 144.609 48.79 145.307 49.6494C146.005 50.4909 146.856 50.9116 147.858 50.9116C148.843 50.9116 149.685 50.4909 150.383 49.6494C151.081 48.79 151.654 47.6353 152.102 46.1851C152.549 44.717 152.871 43.0072 153.068 41.0557C153.265 39.0863 153.364 36.9826 153.364 34.7446ZM171.438 54.9399C171.026 54.9399 170.623 54.931 170.229 54.9131C169.853 54.8952 169.468 54.8862 169.074 54.8862C168.322 54.8862 167.615 54.8952 166.953 54.9131C166.29 54.931 165.717 54.9578 165.234 54.9937C164.643 55.0295 164.115 55.0653 163.649 55.1011C163.9 52.4155 164.097 49.8016 164.24 47.2593C164.383 44.717 164.491 42.4432 164.562 40.438C164.634 38.1105 164.679 35.8994 164.697 33.8047C164.697 31.7637 164.661 29.6779 164.589 27.5474C164.554 26.6343 164.509 25.6764 164.455 24.6738C164.419 23.6533 164.366 22.6239 164.294 21.5854C164.24 20.5291 164.16 19.4728 164.052 18.4165C163.963 17.3602 163.864 16.3307 163.757 15.3281C164.509 15.3818 165.207 15.4176 165.852 15.4355C166.496 15.4355 167.096 15.4355 167.651 15.4355C168.224 15.4355 168.743 15.4355 169.208 15.4355C169.674 15.4176 170.068 15.3997 170.39 15.3818C170.766 15.3639 171.097 15.346 171.384 15.3281C171.223 17.5661 171.097 19.7593 171.008 21.9077C170.918 24.0562 170.856 25.9897 170.82 27.7085C170.766 29.7137 170.739 31.6204 170.739 33.4287V35.0669C171.849 33.7062 172.861 32.2381 173.774 30.6626C174.705 29.0871 175.502 27.4578 176.164 25.7749C176.826 24.0741 177.337 22.3553 177.695 20.6187C178.071 18.882 178.259 17.1722 178.259 15.4893V14.6299L187.39 15.4355C185.814 18.2106 184.444 20.6634 183.281 22.7939C182.117 24.9066 181.114 26.7327 180.273 28.2725C179.449 29.8122 178.778 31.0923 178.259 32.1128C177.74 33.1333 177.337 33.939 177.05 34.5298C178.321 34.87 179.342 35.3444 180.112 35.9531C180.9 36.5439 181.517 37.2332 181.965 38.021C182.412 38.8088 182.726 39.6771 182.905 40.626C183.102 41.557 183.254 42.5238 183.361 43.5264C183.469 44.529 183.567 45.5405 183.657 46.561C183.764 47.5815 183.952 48.5752 184.221 49.542C184.364 50.097 184.57 50.6699 184.838 51.2607C185.071 51.7799 185.375 52.3618 185.751 53.0063C186.127 53.633 186.602 54.2775 187.175 54.9399L179.602 55.1011C179.19 54.6893 178.85 54.1432 178.581 53.4629C178.33 52.7826 178.133 52.1112 177.99 51.4487C177.811 50.6789 177.686 49.8643 177.614 49.0049C177.525 48.0202 177.462 47.0623 177.426 46.1313C177.408 45.1825 177.355 44.2873 177.265 43.4458C177.194 42.6043 177.068 41.8345 176.889 41.1362C176.71 40.4201 176.424 39.8114 176.03 39.3101C175.636 38.7909 175.108 38.388 174.445 38.1016C173.801 37.8151 172.968 37.6719 171.948 37.6719C171.751 37.6719 171.554 37.6808 171.357 37.6987C171.16 37.7166 170.954 37.7435 170.739 37.7793C170.793 39.7129 170.865 42.1567 170.954 45.1108C171.062 48.047 171.223 51.3234 171.438 54.9399Z" fill="#004529"/>
</g>
<defs>
<filter id="filter0_d_5_24" x="0.826172" y="14.1196" width="190.563" height="70.1304" filterUnits="userSpaceOnUse" color-interpolation-filters="sRGB">
<feFlood flood-opacity="0" result="BackgroundImageFix"/>
<feColorMatrix in="SourceAlpha" type="matrix" values="0 0 0 0 0 0 0 0 0 0 0 0 0 0 0 0 0 0 127 0" result="hardAlpha"/>
<feOffset dy="4"/>
<feGaussianBlur stdDeviation="2"/>
<feComposite in2="hardAlpha" operator="out"/>
<feColorMatrix type="matrix" values="0 0 0 0 0 0 0 0 0 0 0 0 0 0 0 0 0 0 0.25 0"/>
<feBlend mode="normal" in2="BackgroundImageFix" result="effect1_dropShadow_5_24"/>
<feBlend mode="normal" in="SourceGraphic" in2="effect1_dropShadow_5_24" result="shape"/>
</filter>
</defs>
</svg>
